<svg width="60" height="60" fill="none" xmlns="http://www.w3.org/2000/svg"><path d="M59.11 13.574a.674.674 0 00-.033-.08.998.998 0 00-.063-.146.71.71 0 00-.063-.084 1.096 1.096 0 00-.084-.11c-.027-.025-.061-.047-.09-.07a1.034 1.034 0 00-.106-.08L47.391 6.51a.938.938 0 00-.938 0L35.17 13.008a.945.945 0 00-.103.08.903.903 0 00-.091.071.957.957 0 00-.085.109c-.02.028-.045.053-.063.083a1.143 1.143 0 00-.06.147c-.01.027-.025.051-.034.08a.947.947 0 00-.032.243v12.333L25.3 31.567V7.434a.913.913 0 00-.033-.245c-.007-.028-.023-.052-.033-.08a.98.98 0 00-.06-.145c-.017-.03-.044-.055-.064-.084a1.105 1.105 0 00-.084-.11 1.097 1.097 0 00-.092-.07 1.164 1.164 0 00-.103-.08L13.548.125a.938.938 0 00-.937 0L1.329 6.62a.764.764 0 00-.103.08.914.914 0 00-.093.071.956.956 0 00-.083.109c-.021.03-.047.054-.064.084a.923.923 0 00-.06.146.757.757 0 00-.034.078.959.959 0 00-.033.246v38.637a.937.937 0 00.469.815l22.558 12.989c.05.025.103.046.156.063.025.01.048.023.074.03a.928.928 0 00.48 0c.024-.006.044-.018.065-.026.056-.017.111-.04.164-.067l22.566-12.99a.937.937 0 00.468-.814V33.736l10.81-6.224a.938.938 0 00.469-.82V13.819a1.01 1.01 0 00-.029-.245zM13.077 2.025l9.397 5.408-9.398 5.412-9.396-5.41 9.397-5.41zM23.42 9.056v23.592l-5.453 3.14-3.948 2.273V14.473l5.453-3.14 3.948-2.277zm0 48.373L2.739 45.527V9.061l3.948 2.271 5.451 3.14V39.69c.003.035.007.07.014.105a.934.934 0 00.02.139.683.683 0 00.044.105c.013.04.03.08.049.117a.973.973 0 00.07.092c.024.034.05.067.077.098.027.026.061.045.09.068.033.028.066.054.101.078l10.804 6.114.013 10.824zm.938-12.442l-9.383-5.31 9.855-5.674 10.81-6.223 9.39 5.406-6.89 3.933-13.783 7.87zm21.623.536L25.298 57.435V46.617l15.32-8.742 5.363-3.065v10.713zm0-13.96l-3.948-2.266-5.453-3.14V15.444l3.948 2.274 5.453 3.141v10.703zm.937-12.338l-9.398-5.411 9.398-5.41 9.397 5.409-9.397 5.412zm.938 12.337V20.86l5.464-3.142 3.947-2.273v10.71l-9.411 5.408z" fill="#000"/></svg>