<svg width="28" height="56" fill="none" xmlns="http://www.w3.org/2000/svg"><path d="M23.586 42.142l-1.652 2.639-.54 8.602c0 .955-3.316 1.727-7.394 1.727s-7.395-.772-7.395-1.727l-.68-8.517-1.745-2.724c4.828 1.855 14.765 1.791 19.406 0zM.617 14.972l1.594 13.461c.691-2.145 2.437-5.041 4.687-5.92.739-.29 1.489-.29 2.192.096.61.322 1.125.997 1.184 1.265.14.698-.235.977-.528.977-.351 0-.621-.494-.797-.783-.48-.783-1.207-.816-1.98-.3-.809.536-1.512 1.437-2.004 2.22-.598.944-1.102 1.984-1.406 3.024-.176.601-.34 1.567-.07 2.135.116.236.292.386.574.386.585 0 1.44-.708 1.851-1.083.527-.483 1.207-1.234 1.465-1.716l.61-1.663c.304-.73 1.16-.6 1.16 0 0 1.094-.434 1.459-1.172 3.722-.68 2.092-.891 2.768-.891 2.768-.082.3-.398.804-.738.804-.141 0-.246-.043-.305-.129-.117-.15-.105-.568-.094-.675.024-.344.739-2.382.856-2.703-.235.235-.48.471-.75.707-.633.547-1.653 1.266-2.52 1.266-.398 0-.656-.096-.902-.257l.89 8.538c.235.536 4.594 1.834 10.336 1.834 5.754 0 10.114-1.308 10.336-1.834l1.278-10.147c-.668.558-1.442 1.244-2.297 1.587-.633.247-2.04.408-2.04-.611 0-.558 1.067-1.588 1.688-2.306.164-.183.551-.633.551-.87 0-.31-.703-.235-1.371.269-.375.29-.727.676-1.02 1.04-.504.644-.773 1.202-.996 1.663-.726 1.523-.48.923-1.066 2.36-.586 1.427-.492 1.266-.61 1.502a1.082 1.082 0 01-.468.482c-.223.108-.528.097-.715-.032-.106-.064-.152-.204-.152-.397 0-.096.011-.193.035-.29.175-.654.914-1.94 1.758-3.679.187-.396.117-.278.093-.246-.726.643-1.277.954-1.687 1.126-.68.279-1.524.279-1.7-.44-.011-.043-.011-.086-.023-.128-1.383.986-2.848 1.254-2.344-.87-.539.88-1.476 1.599-2.625 1.599-.48 0-.832-.15-1.007-.547-.27-.59.152-1.598.539-2.553.199-.483.468-1.062.832-1.738.187-.364.492-.579.89-.482.07.021.13.043.188.075.304.193.187.482.035.772-.445.804-.832 1.394-1.09 2.231-.105.354-.234.966.176.966.281 0 .55-.086.808-.258.54-.365.973-.912 1.301-1.448.235-.386.516-.89.656-1.32.06-.182.13-.353.212-.514.128-.268.304-.547.609-.547a.48.48 0 01.375.16c.199.236.152.483.047.74-.235.601-.551 1.138-.809 1.792-.152.375-.316.858-.316 1.255 0 .365.433.279.797.129.28-.118.562-.3.796-.483.141-.526.106-.408 3.094-7.316.152-.353.434-.504.715-.504a.67.67 0 01.375.118c.2.14.2.44.117.665-.082.204-.07.14-.527 1.127-.61 1.298-1.008 2.23-1.547 3.421-.223.494-.902 2.028-1.02 2.393-.07.235-.152.622.118.622.633 0 2.261-1.405 2.707-1.824.023-.032.058-.043.105-.064.07-.204.14-.397.2-.59.163-.408.316-.88.62-1.212.094-.108.2-.172.317-.172.328 0 .492.129.492.43 0 .117-.082.546-.129.664.164-.16.34-.322.527-.482 1.758-1.492 3.012-.73 3.012.021 0 .794-1.043 1.899-1.617 2.51-.188.204-.574.58-.586.687 0 .139.106.193.258.193.234 0 .75-.376.937-.505.586-.418 1.383-1.061 1.946-1.512L27.37 14.95c-3.574 1.834-23.156 1.845-26.754.022zm26.918-.912c0 2.252-27.094 2.252-27.094 0 0-.944 6.07-1.706 13.547-1.706 1.055 0 2.086.01 3.082.043l1.477-5.224L25.73.255c.165-.15.68-.022 1.16.375.481.397.774.847.622.998l-.012.01-6.715 6.49-1.172 4.366c4.676.279 7.922.869 7.922 1.566zm-8.133.493c0-.086-.105-.16-.293-.225l-.023.086c0 .14-.586.257-1.3.257-.716 0-1.302-.118-1.302-.257 0-.011 0-.022.012-.032l.024-.076c-.211.065-.352.15-.352.247 0 .225.727.397 1.605.397.903.01 1.63-.172 1.63-.397z" fill="#000"/></svg>