<svg width="32" height="33" fill="none" xmlns="http://www.w3.org/2000/svg"><path d="M15.78 12.59c-.723 0-1.43.228-2.032.652a3.826 3.826 0 00-1.347 1.735 4.066 4.066 0 00-.208 2.232c.142.75.49 1.438 1.002 1.978s1.164.909 1.873 1.057c.71.15 1.446.073 2.114-.22a3.71 3.71 0 001.642-1.423 4.02 4.02 0 00.617-2.146 3.98 3.98 0 00-1.073-2.732 3.566 3.566 0 00-2.587-1.133zm8.555-2.97a3.94 3.94 0 00-.826-1.33 3.694 3.694 0 00-1.26-.873c-1.44-.6-4.87-.466-6.468-.466-1.599 0-5.025-.14-6.47.466a3.71 3.71 0 00-1.26.873 3.95 3.95 0 00-.826 1.33c-.568 1.522-.441 5.147-.441 6.834 0 1.686-.127 5.308.444 6.834.186.499.467.951.826 1.33.359.38.788.676 1.26.873 1.44.6 4.87.466 6.47.466 1.598 0 5.023.14 6.468-.466a3.71 3.71 0 001.26-.873 3.94 3.94 0 00.826-1.33c.573-1.521.441-5.147.441-6.833 0-1.687.132-5.308-.441-6.834h-.003zM15.78 22.395c-1.112 0-2.2-.348-3.125-1.001a5.884 5.884 0 01-2.071-2.666 6.25 6.25 0 01-.32-3.432 6.05 6.05 0 011.539-3.042 5.539 5.539 0 012.88-1.626 5.348 5.348 0 013.25.338 5.703 5.703 0 012.524 2.188 6.18 6.18 0 01.948 3.3 6.212 6.212 0 01-.426 2.275 5.966 5.966 0 01-1.219 1.928 5.608 5.608 0 01-1.826 1.288 5.359 5.359 0 01-2.154.45zm5.857-10.743a1.27 1.27 0 01-.73-.234 1.373 1.373 0 01-.483-.622 1.46 1.46 0 01-.075-.801c.05-.269.175-.516.359-.71a1.3 1.3 0 01.672-.38c.255-.053.519-.026.759.079s.445.283.59.51c.144.229.22.497.22.771.001.182-.032.363-.098.531a1.392 1.392 0 01-.283.45 1.295 1.295 0 01-.928.409l-.003-.003zM27.854.227H3.707c-.873 0-1.71.367-2.328 1.019a3.579 3.579 0 00-.964 2.459v25.5c0 .922.347 1.806.964 2.458a3.207 3.207 0 002.328 1.019h24.147c.873 0 1.71-.367 2.328-1.019a3.579 3.579 0 00.964-2.458v-25.5c0-.923-.347-1.807-.964-2.46A3.207 3.207 0 0027.854.228zm-1.175 21.009c-.088 1.857-.49 3.502-1.773 4.854-1.284 1.351-2.84 1.784-4.596 1.872-1.812.108-7.243.108-9.055 0-1.758-.093-3.31-.518-4.596-1.872-1.285-1.355-1.69-3.001-1.773-4.854-.102-1.914-.102-7.65 0-9.563.088-1.856.485-3.502 1.773-4.853 1.288-1.352 2.845-1.78 4.596-1.868 1.812-.108 7.243-.108 9.055 0 1.758.093 3.315.518 4.596 1.873 1.28 1.354 1.69 3 1.773 4.857.103 1.907.103 7.638 0 9.554z" fill="#E9E9E9"/></svg>