<svg width="60" height="60" fill="none" xmlns="http://www.w3.org/2000/svg"><path d="M53.571 0H6.43A6.43 6.43 0 000 6.429V53.57A6.43 6.43 0 006.429 60H53.57A6.43 6.43 0 0060 53.571V6.43A6.43 6.43 0 0053.571 0zm-20.92 46.795c0 5.839-3.428 8.504-8.423 8.504-4.514 0-7.125-2.33-8.465-5.156l4.594-2.773c.884 1.568 1.688 2.893 3.63 2.893 1.848 0 3.026-.723 3.026-3.549V27.55h5.639v19.246zm13.34 8.504c-5.236 0-8.625-2.491-10.272-5.759l4.593-2.652c1.206 1.97 2.786 3.429 5.559 3.429 2.33 0 3.83-1.165 3.83-2.786 0-1.928-1.527-2.611-4.112-3.75l-1.406-.602c-4.071-1.728-6.763-3.911-6.763-8.505 0-4.232 3.227-7.446 8.25-7.446 3.589 0 6.16 1.245 8.009 4.513l-4.393 2.813c-.965-1.728-2.01-2.411-3.63-2.411-1.647 0-2.692 1.044-2.692 2.41 0 1.688 1.045 2.371 3.469 3.43l1.406.602c4.795 2.049 7.487 4.152 7.487 8.866 0 5.062-3.991 7.848-9.335 7.848z" fill="#000"/></svg>