<svg width="40" height="36" fill="none" xmlns="http://www.w3.org/2000/svg"><path d="M11.3 31.455c-1.73 0-3.46-1.528-4.324-2.182-4.326-3.055-5.623-4.146-6.488-4.8v9.163c0 1.205.968 2.182 2.162 2.182h17.301a2.173 2.173 0 002.163-2.182v-9.163c-.865.654-2.163 1.745-6.488 4.8-.865.654-2.595 2.182-4.325 2.182zm8.651-13.091h-17.3a2.173 2.173 0 00-2.163 2.181v1.091c1.73 1.31 1.514 1.31 7.785 5.891.649.437 1.947 1.746 3.028 1.746s2.379-1.31 3.027-1.527c6.272-4.582 6.056-4.582 7.786-5.891v-1.31a2.173 2.173 0 00-2.163-2.181zm17.301-6.546H15.626A2.172 2.172 0 0013.463 14v2.182h6.488c2.245 0 4.095 1.733 4.306 3.942l.02-.015v9.164h12.975a2.172 2.172 0 002.163-2.182v-13.09a2.172 2.172 0 00-2.163-2.183zm-2.163 8.728h-4.325v-4.364h4.325v4.364zM11.301 14c0-2.406 1.94-4.364 4.325-4.364h15.138V3.091A2.173 2.173 0 0028.602.909H6.976a2.173 2.173 0 00-2.163 2.182v13.09h6.488v-2.18z" fill="#E9E9E9"/></svg>