<svg width="75" height="60" fill="none" xmlns="http://www.w3.org/2000/svg"><path d="M29.886 30.662c.733.733 1.92.733 2.652 0l1.326-1.325a1.875 1.875 0 000-2.652L29.678 22.5l4.184-4.186a1.875 1.875 0 000-2.652l-1.325-1.325a1.875 1.875 0 00-2.652 0l-6.837 6.836a1.875 1.875 0 000 2.652l6.838 6.837zm11.252-1.324l1.325 1.325c.732.733 1.92.733 2.652 0l6.837-6.836a1.875 1.875 0 000-2.652l-6.837-6.837a1.875 1.875 0 00-2.652 0l-1.325 1.325a1.875 1.875 0 000 2.652l4.184 4.185-4.184 4.186a1.875 1.875 0 000 2.652zM73.124 48.75H44.712c-.087 2.322-1.724 3.75-3.837 3.75H33.75c-2.19 0-3.87-2.047-3.84-3.75H1.875A1.88 1.88 0 000 50.625V52.5C0 56.625 3.375 60 7.5 60h60c4.125 0 7.5-3.375 7.5-7.5v-1.875a1.88 1.88 0 00-1.875-1.875zM67.5 5.625C67.5 2.531 64.969 0 61.875 0h-48.75C10.031 0 7.5 2.531 7.5 5.625V45h60V5.625zM60 37.5H15v-30h45v30z" fill="#000"/></svg>