<svg width="75" height="53" fill="none" xmlns="http://www.w3.org/2000/svg"><path d="M35.372 39.835c-.035.064-.07.116 0 0zm29.195-9.332c-2.357 0-4.683.495-6.797 1.448-.692-1.277-1.406-2.392-1.524-3.229-.14-.976-.293-1.555-.128-2.714.164-1.158.902-2.8.89-2.917-.012-.118-.164-.708-1.676-.719-1.511-.01-2.812.268-2.963.633a12.314 12.314 0 00-.621 2.049c-.27 1.255-3.023 5.738-4.581 8.077-.516-.912-.95-1.716-1.043-2.36-.14-.976-.293-1.555-.13-2.714.165-1.158.903-2.8.892-2.917-.012-.118-.165-.708-1.675-.72-1.51-.01-2.813.269-2.965.634-.152.364-.316 1.223-.621 2.049-.305.825-3.971 8.291-4.931 10.233-.492.986-.914 1.78-1.219 2.317-.047.085-.082.139-.105.182.035-.054.058-.107.058-.086-.258.461-.41.719-.41.719v.01c-.2.344-.422.655-.527.655-.07 0-.223-.901.035-2.135.55-2.596 1.851-6.629 1.84-6.768-.012-.075.246-.772-.856-1.148-1.066-.354-1.453.236-1.547.236-.093 0-.164.215-.164.215s1.184-4.549-2.272-4.549c-2.156 0-5.156 2.167-6.63 4.13-.926.462-2.93 1.459-5.04 2.521l-2.425 1.223c-.059-.054-.106-.107-.164-.161C13.073 30.599 5.33 27.703 5.658 22.2c.117-2.005.879-7.272 14.89-13.665 11.485-5.235 20.667-3.797 22.248-.6 2.273 4.558-4.91 13.043-16.835 14.266-4.546.46-6.936-1.148-7.533-1.749-.621-.633-.715-.665-.95-.547-.386.193-.14.75 0 1.083.352.848 1.817 2.35 4.312 3.1 2.191.655 7.52 1.02 13.965-1.265 7.24-2.553 12.875-9.665 11.223-15.618-1.683-6.05-12.642-8.034-23.005-4.666-6.175 2.006-12.852 5.16-17.655 9.268-5.706 4.89-6.62 9.15-6.244 10.93 1.335 6.318 10.848 10.437 14.655 13.483-.187.097-.363.182-.527.268-1.909.87-9.162 4.345-10.977 8.013-2.05 4.162.34 7.144 1.909 7.551 4.897 1.245 9.912-.997 12.606-4.676 2.694-3.68 2.367-8.485 1.125-10.673-.012-.032-.035-.054-.047-.086.492-.268.996-.536 1.5-.804a98.826 98.826 0 012.753-1.427c-.469 1.158-.809 2.553-.985 4.57-.21 2.36.856 5.416 2.239 6.618.609.525 1.346.536 1.803.536 1.617 0 2.344-1.223 3.151-2.682.996-1.78 1.875-3.85 1.875-3.85s-1.101 5.599 1.91 5.599c1.1 0 2.202-1.298 2.696-1.963v.01s.023-.042.082-.128c.117-.161.176-.258.176-.258v-.032c.445-.697 1.418-2.295 2.881-4.934 1.899-3.411 3.714-7.67 3.714-7.67.175.937.418 1.861.727 2.768.328 1.019 1.019 2.135 1.57 3.218-.445.558-.715.88-.715.88 0 .008.005.015.012.02-.352.43-.75.891-1.16 1.342-1.5 1.63-3.282 3.497-3.516 4.033-.281.633-.211 1.105.328 1.47.398.278 1.102.321 1.839.268 1.347-.086 2.297-.386 2.754-.58a9.972 9.972 0 002.366-1.137c1.464-.986 2.355-2.402 2.273-4.269-.047-1.03-.41-2.06-.855-3.025.129-.171.27-.354.398-.536 2.32-3.1 4.112-6.502 4.112-6.502.175.936.418 1.86.727 2.767.28.869.83 1.823 1.334 2.757-2.178 1.62-3.526 3.497-3.995 4.73-.867 2.285-.187 3.315 1.09 3.55.575.108 1.395-.139 2.004-.375a9.654 9.654 0 002.53-1.19c1.465-.987 2.882-2.371 2.788-4.248-.035-.848-.293-1.695-.633-2.51 1.84-.708 4.23-1.094 7.277-.773 6.525.698 7.802 4.43 7.556 5.986-.246 1.555-1.617 2.424-2.074 2.682-.457.257-.598.354-.563.547.059.278.27.268.656.203.54-.085 3.421-1.265 3.55-4.15.188-3.648-3.643-7.66-10.43-7.627l.004.002zM14.272 46.024c-2.155 2.156-5.178 2.971-6.478 2.285-1.394-.742-.844-3.915 1.815-6.213 1.618-1.394 3.702-2.682 5.085-3.475.316-.172.774-.43 1.336-.74.094-.054.14-.075.14-.075.106-.065.223-.118.34-.183.972 3.261.036 6.136-2.238 8.399v.002zm15.746-9.804c-.75 1.684-2.331 5.975-3.292 5.75-.82-.194-1.324-3.465-.164-6.683.586-1.62 1.828-3.55 2.566-4.302 1.183-1.212 2.483-1.598 2.788-1.115.41.633-1.43 5.299-1.898 6.35zm13.007 5.685c-.316.15-.609.247-.75.172-.105-.054.13-.258.13-.258s1.628-1.598 2.273-2.327A95.9 95.9 0 0045.954 38c0 .053.012.107.012.171-.016 1.92-2.03 3.218-2.944 3.733h.003zm10.03-2.092c-.235-.15-.2-.654.585-2.22.305-.611 1.007-1.641 2.227-2.628.138.374.213.764.223 1.158-.012 2.414-1.899 3.315-3.035 3.69z" fill="#000"/></svg>